<svg id="Layer_19" data-name="Layer 19" xmlns="http://www.w3.org/2000/svg" viewBox="0 0 1109.07 1012.55"><defs><style>.cls-1{fill:#2e7eff;}.cls-2,.cls-8{opacity:0.3;}.cls-3,.cls-8{stroke:#2e7eff;stroke-miterlimit:10;}.cls-4,.cls-8{fill:#fff;}.cls-5{fill:#546e7a;}.cls-6{fill:#afbdc3;}.cls-7{fill:#28b5f5;}.cls-9{fill:#1e76bc;}</style></defs><title>jio</title><g id="Layer_11" data-name="Layer 11"><path class="cls-1" d="M328.88,876a44.16,44.16,0,0,1,3.88,2.64l-10.12-7.81a40,40,0,0,1,4.42,4.41l-7.82-10.12a38.21,38.21,0,0,1,3.39,5.25l7.82-60.6c-1,1-2,2-3.05,3l10.12-7.82A16.65,16.65,0,0,1,334,807l11.94-5-1.29.34L358,800.49a6.62,6.62,0,0,1-2.43,0l13.29,1.79-1-.31,11.94,5a6.76,6.76,0,0,1-1.77-1.09l10.12,7.82-.75-.74,7.82,10.12a13.35,13.35,0,0,1-1.67-2.82l5.05,11.94A11,11,0,0,1,398,830l1.79,13.3a15.64,15.64,0,0,1,0-3.42L398,853.17a9,9,0,0,1,.64-2.16l-5,11.94a13.29,13.29,0,0,1,1.39-2.39l-7.82,10.12a23.65,23.65,0,0,1,3.92-3.89L381,874.61a50.75,50.75,0,0,1,8.88-4.88l-11.95,5a15.36,15.36,0,0,1,3.1-.93l-13.29,1.78,1.55-.13L356,873.71l1.49.2-11.95-5,1.4.61-10.12-7.82,1,.89L330,852.43a7,7,0,0,1,1.34,2.37l-5-11.95a12.9,12.9,0,0,1,.59,2.81l-1.79-13.29a48.57,48.57,0,0,1-.2,8.61l1.78-13.29a49.55,49.55,0,0,1-2.44,10l5-11.94a12.87,12.87,0,0,1-1.16,2.28l7.82-10.12a6.93,6.93,0,0,1-1.72,1.82l10.12-7.82-1.31.71,11.94-5-1.42.37,13.29-1.79a9.5,9.5,0,0,1-3-.07l13.29,1.78a15.88,15.88,0,0,1-3-.86L386,812a46.64,46.64,0,0,1-9.85-5.79L386.3,814a49.93,49.93,0,0,1-8.06-8.25c-7.27-9.38-24.14-14.64-35.35-14.64-12.27,0-26.92,5.44-35.36,14.64-8.75,9.53-15.24,22-14.64,35.36l1.78,13.29a50,50,0,0,0,12.86,22.06,77.06,77.06,0,0,0,26.6,21.26c10.8,5.27,20.68,8.29,32.71,8.37,15,.11,29.68-6.76,39.81-17.54,13.08-13.93,18.62-34.19,18.59-53,0-26.69-15.23-51.06-42-58.21-17.88-4.78-37.79.52-52.81,10.88-18.42,12.71-30.57,30.86-30.85,53.9-.3,24.63,17.23,50.1,41.6,56.2,22.25,5.56,44.22-1.47,59.94-17.9s18.56-40.64,7.82-60.6c-6.76-12.56-17.5-22.88-29.62-30.24-11-6.66-26.22-8.43-38.53-5-11.6,3.2-24.17,12.16-29.88,23-6.13,11.6-9.21,25.66-5,38.53,4,12.52,11.55,22.95,23,29.88Z" transform="translate(-41.69 -105.84)"/><path class="cls-1" d="M334.47,722.7c-19.31,15.47-35.29,34.42-49.23,54.81l93.17,25.23a54.52,54.52,0,0,1,.42-9.89l-1.78,13.29c1.71-10.81,6-20.93,8.21-31.63,1.81-9,3.4-18.53,2.86-27.75-.57-9.86-2.45-19.62-3.78-29.4l1.78,13.3a66.7,66.7,0,0,1-.39-16L384,728a19.08,19.08,0,0,1,.54-2.79l-5,11.95.41-1L372,746.3l.68-.76L350.65,758.4l1.33-.47H325.4l1.45.22-12-5c5.27,2.25,10.29,5.28,15.84,6.8,8.74,2.39,14,2.06,22.09,1,20.27-2.72,38.44-17.06,43.29-37.62,3-12.92,1.75-26.92-5-38.53-6.07-10.37-18-20.26-29.89-23-12.79-2.92-27.16-2.29-38.52,5-10.73,6.91-20,17.11-23,29.88l-.21.87,12.86-22.06-.62.6,22.07-12.86-.9.33,13.29-1.79-1.06.08,13.29,1.79a5,5,0,0,1-2.08-.53l11.94,5c-17.78-9.43-38.14-11.68-56.14-1.14-15.25,8.93-23.23,24.1-25.5,41-.88,6.53-1.57,12.51-.93,19.05.85,8.63,2.29,17.21,3.47,25.8l-1.78-13.3a69.9,69.9,0,0,1,.36,17.52l1.79-13.29c-1.23,8.07-3.87,15.74-6.13,23.57-3.27,11.33-5.62,23.56-5,35.35.6,11.31,3.76,21.26,10.74,30.3,6.38,8.26,15.5,15.53,26,17.92a59.67,59.67,0,0,0,26.59,0c12.76-2.91,22.79-12.62,29.88-23q3.45-5.06,7.16-9.92l-7.82,10.12a208.65,208.65,0,0,1,34.25-34.77c9.35-7.5,14.64-23.94,14.64-35.36,0-12.26-5.44-26.91-14.64-35.35-9.53-8.75-22-15.24-35.36-14.65l-13.29,1.79a49.87,49.87,0,0,0-22.06,12.86Z" transform="translate(-41.69 -105.84)"/><path class="cls-1" d="M419.32,762.73l5.05-37.3-61.5,34.93c23.3,8.46,46.65,16.85,70.46,23.81a473,473,0,0,0,84.47,16.49c28.2,2.89,56.4.88,84.21-4.54,24.48-4.78,48.09-13.1,71.69-21l40.56-13.53c13.47-4.49,27.06-10.07,41.18-12.08l-13.29,1.79a59.36,59.36,0,0,1,14.59.15l-13.29-1.79c16.88,2.73,33.41,9.33,49.7,14.4l52.12,16.25,51,15.9c16.13,5,32.92,9.19,48.55,15.61l-11.95-5A53.74,53.74,0,0,1,943,812.49l-10.12-7.82a53.41,53.41,0,0,1,8.79,8.8l-7.82-10.12c6.82,9,11.5,19.42,15.89,29.76l-5-11.94c13.76,33,21.49,67.87,30.52,102.3,9.86,37.6,22,75.59,42.57,108.86l68.41-68.41a599.59,599.59,0,0,0-105.5-63.57c-40.62-19.08-82.89-34.8-126.55-45.33-26.49-6.4-53.29-10.49-80.31-13.94l13.29,1.78a69.75,69.75,0,0,1-15.69-3.65l12,5a30.24,30.24,0,0,1-6.59-3.75l10.12,7.82a27.63,27.63,0,0,1-2.62-2.57l7.82,10.12a21.19,21.19,0,0,1-2.55-4.3l5,11.94a23.37,23.37,0,0,1-1.11-4.45l1.79,13.29a27.68,27.68,0,0,1,.07-4.46l-1.78,13.29a37.58,37.58,0,0,1,2.1-7.44l-5,11.94c5.11-12,11.89-22.77,16.12-35.25,2.75-8.12,4.24-16.61,7.46-24.58l-5,11.94a43.16,43.16,0,0,1,5.07-8.85l-7.82,10.12a32,32,0,0,1,5-4.89L801.26,842a32.08,32.08,0,0,1,5.85-3.23l-11.94,5a35.5,35.5,0,0,1,6.49-1.73l-13.29,1.79a33.79,33.79,0,0,1,8,0L783.12,842a32.53,32.53,0,0,1,6.42,1.71l-11.95-5a28.35,28.35,0,0,1,5.72,3.32l-10.12-7.82a28.22,28.22,0,0,1,3.62,3.63L769,827.72a27.09,27.09,0,0,1,3,5.25l-5-12a29.89,29.89,0,0,1,1.59,5.88l-1.78-13.29a31.44,31.44,0,0,1,0,7.32l1.79-13.29a30.08,30.08,0,0,1-2,7l5-11.95a30.14,30.14,0,0,1-2.4,4.16l7.82-10.12a24.72,24.72,0,0,1-4.22,4.27L783,793.2a24.5,24.5,0,0,1-4.15,2.33l11.94-5a26.17,26.17,0,0,1-4.51,1.23l13.29-1.79a28.09,28.09,0,0,1-5.87.09L807,791.8a28.85,28.85,0,0,1-6.86-1.82l12,5a29.36,29.36,0,0,1-5.1-2.94l10.12,7.82a25.64,25.64,0,0,1-4.11-4.09l7.82,10.12a23.75,23.75,0,0,1-2.31-4l5,12a23.13,23.13,0,0,1-1.26-4.77l1.79,13.29a26.32,26.32,0,0,1,.1-5.54l-1.78,13.3a29,29,0,0,1,1.54-5.33l-5,11.95a31.63,31.63,0,0,1,3.61-6l-7.82,10.12a35.51,35.51,0,0,1,5.11-5l-10.12,7.82a34,34,0,0,1,6.19-3.56l-11.94,5a37.89,37.89,0,0,1,7.85-2l-13.29,1.78a46.17,46.17,0,0,1,10,.08l-13.3-1.78a57.23,57.23,0,0,1,13.08,3.69l-11.94-5a69.85,69.85,0,0,1,13.35,7.84l-10.12-7.82a74.93,74.93,0,0,1,12.65,12.52l-7.81-10.12a76.36,76.36,0,0,1,9.08,15.32l-5-11.94a72.54,72.54,0,0,1,4.6,15.66l61.51-61.5a44.58,44.58,0,0,1-6.93-1.87l12,5a24.06,24.06,0,0,1-4.89-2.77L884.84,810a14.4,14.4,0,0,1-2-2l7.82,10.12a15.14,15.14,0,0,1-1.79-3.16l5,12a11.42,11.42,0,0,1-.59-2.37l1.79,13.29a10.22,10.22,0,0,1-.07-2.41l-1.79,13.3a9.35,9.35,0,0,1,.49-2.29l-5,11.94a7.86,7.86,0,0,1,1.06-2L882,866.53a6.69,6.69,0,0,1,1.67-1.6l-10.12,7.81,1.31-.71-11.94,5,1.37-.43L851,878.43a9.27,9.27,0,0,1,2.88-.12l-13.3-1.78A21.1,21.1,0,0,1,845,877.8l-11.94-5a36.81,36.81,0,0,1,5.43,3.31l-10.12-7.82a103.28,103.28,0,0,1,17.48,17.36L838,875.49a109,109,0,0,1,8.17,12.35c7.74,13.65,21.33,21.83,36.53,23.87,14.65,2,31.9-1.89,42-13.75a109.81,109.81,0,0,1,16-15.33l-10.11,7.82a92.17,92.17,0,0,1,17.38-10.72l-11.94,5a14.85,14.85,0,0,1,3.21-1l-13.29,1.78a10,10,0,0,1,3-.09l-13.29-1.78a9.51,9.51,0,0,1,2.51.67l-11.94-5a11.26,11.26,0,0,1,2.27,1.27l-10.12-7.81a19.48,19.48,0,0,1,2.86,2.81l-7.82-10.12a24.17,24.17,0,0,1,2,3.56l-5-11.94a22.62,22.62,0,0,1,1.07,4l-1.79-13.29a31.85,31.85,0,0,1,0,5.61l1.79-13.3a65.13,65.13,0,0,1-3.58,12.77l98.21,13.29-2.28-38.53c-.67-11.33-3.73-21.22-10.74-30.3-6.38-8.26-15.5-15.53-26-17.91a59.34,59.34,0,0,0-26.58,0c-13.27,3-22.2,12.64-29.89,23l-.85,1.15,7.82-10.12a41.23,41.23,0,0,1-6,6l10.12-7.82a46.29,46.29,0,0,1-9.78,5.66l11.94-5a57.05,57.05,0,0,1-12.53,3.32l13.3-1.79a65.57,65.57,0,0,1-16.62-.16l13.29,1.78a114.72,114.72,0,0,1-26-7.81l11.95,5c-5-2.16-10-4.48-15-6.82l-38.53,91.39a462.45,462.45,0,0,0,107.42,28.34c9,1.25,17.61,2.47,26.58,0a49.59,49.59,0,0,0,26-17.92,47.36,47.36,0,0,0,9.84-23.65c1.34-10,.48-23.51-5.94-31.88-5.46-7.13-10.64-14.47-17.35-20.49a161.72,161.72,0,0,0-21.15-16.15c-11.73-7.47-25.06-12.7-38-17.49-20-7.37-40.9-12.07-60.61-20.29l11.94,5a138.11,138.11,0,0,1-16.68-8.35c-6.76-4-13-8.92-20.06-12.52-15.16-7.74-28.05-10.61-44.77-12.57a198.24,198.24,0,0,0-22.2-1.12,301.77,301.77,0,0,0-50.9,4.56c-16.82,2.79-32.49,8.53-47.91,15.77-8.21,3.86-15.35,8.87-22.51,14.4-7.43,5.74-14.32,11.44-20.17,18.83A55.7,55.7,0,0,0,612.59,817l1.79,13.29a50,50,0,0,0,12.85,22.07c10.76,13.19,23.62,23.71,37.31,33.78s29,16.9,44.84,23.23l-29.89-73.45c-1.16,1.86-2.41,3.65-3.75,5.39l7.82-10.12a62.38,62.38,0,0,1-10,9.77l10.12-7.82a89.7,89.7,0,0,1-19.08,10.73l11.94-5c-10.12,4.19-20.66,7.19-31.17,10.21a345.36,345.36,0,0,0-42,15c-26.84,11.58-48.62,32-71.5,49.73L542,905.93c-11.44,8.78-23.33,16.91-36.58,22.72l11.94-5c-15.77,6.64-32.55,9.94-48.9,14.77a239,239,0,0,0-33.37,12.93c-7.65,3.58-15,7.78-22.72,11.17l11.94-5A63,63,0,0,1,408.87,962l13.29-1.79a39.21,39.21,0,0,1-7.66.06L427.79,962a33.48,33.48,0,0,1-7.56-2l-13.29-1.79a37.67,37.67,0,0,0-19.27,4.31c-9.6,4.05-18.9,11-23.91,20.45a59.22,59.22,0,0,0-6.82,25.24c-.62,13.71,6.37,25.29,14.64,35.36l13.21,16.07,60.59-78.53L334.47,920.75c-37.65-20.5-75-41.14-114.92-57-20-8-40.74-14-62.09-17.06l22.07,83.57c22.67-18.49,45.32-37,66.81-56.91a556.47,556.47,0,0,0,65.32-72.07A324.23,324.23,0,0,0,338.5,760l-91.38-38.52L210.31,828.7,208.52,842l1.79,13.3a49.56,49.56,0,0,0,17.92,26,47.36,47.36,0,0,0,23.65,9.84c10.21,1.37,23.18.35,31.88-5.93a283.27,283.27,0,0,1,55.39-31.23l-11.94,5c1.12-.47,2.24-.94,3.37-1.39l-63.3-48.22c-.09,1.57-.23,3.11-.4,4.67l1.79-13.29a74.12,74.12,0,0,1-4.82,18l5-11.94A75.5,75.5,0,0,1,259.43,823l7.82-10.12a74.93,74.93,0,0,1-9.77,10.06l70.71,70.71a174.18,174.18,0,0,1,18.46-16.73l-10.11,7.82A169.24,169.24,0,0,1,373.79,863l-12,5c1-.42,2.05-.84,3.09-1.24l-63.3-48.22a48.47,48.47,0,0,1,0,11.42l1.79-13.29a50.15,50.15,0,0,1-3,11l5-12a52,52,0,0,1-3.87,7.2c-6.55,10.19-8.77,27-5,38.53a51.75,51.75,0,0,0,17.92,26c8.43,6.51,19.34,11.23,30.29,10.73,12.74-.57,26.68-4.69,35.36-14.64a134.67,134.67,0,0,1,18.25-17.32l-10.12,7.82a134.18,134.18,0,0,1,21.34-13.33l-75.23-43.18a58.15,58.15,0,0,1,0,14.56l1.78-13.29a62.45,62.45,0,0,1-3.87,14l5-11.95A63.56,63.56,0,0,1,330,833.59l7.82-10.12a60.36,60.36,0,0,1-10.22,10.36L337.74,826a64.74,64.74,0,0,1-6.08,4l68.4,68.41a127.7,127.7,0,0,1,15.88-27.23l-7.82,10.12A132.38,132.38,0,0,1,431.51,858l-10.12,7.82A128.78,128.78,0,0,1,448.64,850l-11.95,5q2.79-1.14,5.61-2.18L379,804.65c-.16,3.75-.49,7.46-1,11.18l1.78-13.29a119,119,0,0,1-7.63,27.76l5-11.95a119.45,119.45,0,0,1-15.33,26.23l7.82-10.12a96.9,96.9,0,0,1-15.48,15.94l10.12-7.81a36.42,36.42,0,0,1-6.61,3.92l11.94-5a27.86,27.86,0,0,1-4.39,1.26L378.58,841a21.39,21.39,0,0,1-4,.07l13.29,1.79a21.83,21.83,0,0,1-3.9-1l11.95,5a19.21,19.21,0,0,1-3.41-2l10.12,7.82a11.07,11.07,0,0,1-1.8-1.82L408.65,861a9.73,9.73,0,0,1-1.3-2.2l5,11.95a9.81,9.81,0,0,1-.71-2.88l1.78,13.29a11.16,11.16,0,0,1,.18-3.26l-1.79,13.3a16,16,0,0,1,1-3.19l-5,11.94a47.27,47.27,0,0,1,5.54-8.65l-7.82,10.12a227.77,227.77,0,0,1,39.12-39.07l-10.12,7.82A227.8,227.8,0,0,1,482.07,842l-11.95,5a23.56,23.56,0,0,1,5.31-1.54l-13.29,1.79,1.32,0-13.29-1.78a5.7,5.7,0,0,1,2.43.64l-12-5,1.05.76L431.58,834l.83,1-7.82-10.12.53,1.18-5-11.94.28,1.29-1.79-13.29a11.75,11.75,0,0,1,0,2.78l1.79-13.29c-1.29,8.17-4.33,16.26-7.46,23.89l5-11.95a152.92,152.92,0,0,1-19.06,32.93l7.82-10.11A148.69,148.69,0,0,1,381,852.33l10.12-7.82a53.09,53.09,0,0,1-9.67,6l11.94-5a32.69,32.69,0,0,1-6.13,1.81l13.3-1.79a24.16,24.16,0,0,1-4.25.13l13.29,1.79a22,22,0,0,1-5.16-1.37l11.95,5a21.57,21.57,0,0,1-3.39-2l10.12,7.82a12.52,12.52,0,0,1-1.86-1.78l7.82,10.12a15.64,15.64,0,0,1-2-3.23l5,11.94a10.11,10.11,0,0,1-.63-2.49l1.79,13.29a11.43,11.43,0,0,1,.08-3.25l-1.79,13.29a14.58,14.58,0,0,1,.9-3.11l-5,11.94a34.14,34.14,0,0,1,3.46-5.78l-7.82,10.12a161.72,161.72,0,0,1,28.09-27.12l-10.12,7.82a181.69,181.69,0,0,1,39.26-22.73l-11.94,5c9.29-3.83,19-7.37,29-9l-13.29,1.79a35,35,0,0,1,7.45-.22l-13.29-1.78a23.81,23.81,0,0,1,4.16,1l-11.94-5a19,19,0,0,1,3.69,2.18L464,852.06A12.71,12.71,0,0,1,465.9,854l-7.82-10.12a21.08,21.08,0,0,1,2,3.43l-5-11.94a27.4,27.4,0,0,1,1.44,5.27l-1.79-13.29a53.89,53.89,0,0,1-.34,14l1.78-13.29a87.33,87.33,0,0,1-5.63,20.32l5-11.94a94.77,94.77,0,0,1-12.13,20.65L451.24,847a97.62,97.62,0,0,1-16,15.95l10.12-7.82A91.76,91.76,0,0,1,426,866.51l11.95-5a70.38,70.38,0,0,1-17.16,5l13.3-1.79a30.09,30.09,0,0,1-6.15,0l13.29,1.78a23.71,23.71,0,0,1-3.42-.84l11.95,5a14.64,14.64,0,0,1-2.85-1.57L457,876.86a8.08,8.08,0,0,1-1.44-1.48l7.82,10.12a7,7,0,0,1-1-1.88l5,12-.28-1.09L469,907.77a7.68,7.68,0,0,1,.07-3L467.25,918l.45-1.45-5,11.95a23.86,23.86,0,0,1,2.4-4.08l-7.82,10.12c7.83-9.6,17.48-18,27.21-25.59l-10.12,7.82a211.34,211.34,0,0,1,46.3-27l-11.95,5c11.49-4.77,23.73-9.23,36.07-11.19l-13.29,1.78a13.12,13.12,0,0,1,3.54,0l-13.29-1.78,1.7.47-11.94-5a8,8,0,0,1,1.94,1.08l-10.12-7.82a6.87,6.87,0,0,1,1.43,1.47l-7.81-10.12a7.94,7.94,0,0,1,1,1.79l-5-12a9.61,9.61,0,0,1,.55,2l-1.78-13.29a20.81,20.81,0,0,1,0,4.6l1.78-13.29a31.11,31.11,0,0,1-1.67,6.06l5-11.95a49.66,49.66,0,0,1-6.59,10.44L498,828a127.86,127.86,0,0,1-21.74,21.63l10.12-7.82a130.47,130.47,0,0,1-27.83,16.23l11.94-5a125.84,125.84,0,0,1-28,8l13.29-1.79a16.37,16.37,0,0,1-4.74.06l13.29,1.79-1.44-.59,11.95,5-.95-.72L484,872.62l-.68-.85,7.82,10.12-.43-.95,5,11.94-.21-1,1.79,13.29V904l-1.78,13.29a14.68,14.68,0,0,1,1-3.54l-5,11.94a26,26,0,0,1,2.19-3.47l-7.82,10.12c4.88-5.8,11.82-10.36,17.79-15l-10.12,7.82a457.34,457.34,0,0,1,99.52-58l-12,5q4.85-2,9.72-4l-61.5-61.51a105.36,105.36,0,0,1-5.84,18.6l5-12a103.89,103.89,0,0,1-12.29,21l7.82-10.12a107.65,107.65,0,0,1-8.58,9.77,50.14,50.14,0,0,0-3.91,65.65c14.89,19.28,43,25.88,64.5,12.88,27-16.32,52.47-35,76.92-54.88,9.34-7.61,14.65-23.84,14.65-35.36,0-12.26-5.45-26.91-14.65-35.35-9.53-8.75-22-15.24-35.35-14.65l-13.3,1.79A50,50,0,0,0,582.31,787q-5.76,4.69-11.63,9.26l10.12-7.82a584.09,584.09,0,0,1-55.17,37.8l60.59,78.53c19.19-19.37,33.83-44.66,39.56-71.44,3.8-17.74.31-35.49-12.85-48.65a50,50,0,0,0-48.65-12.86c-25.74,10.22-50.91,21.66-74.8,35.72-23.3,13.71-45.15,29.68-66.11,46.74-22.66,18.45-34.6,50.36-18.81,77.6a55.85,55.85,0,0,0,49.6,27.54c9-.25,19.46-2.43,28.4-4.93,27.18-7.58,51.92-22,72.62-41.09,9.9-9.11,19.67-20.21,26.28-31.83,13.07-23,14.55-51.86-2.12-73.43-11.37-14.72-27.41-22.3-46.09-22.87-9.56-.29-20.36,2.73-29.67,5.46a286.33,286.33,0,0,0-40.87,16c-22.93,10.74-44.12,26-62.63,43.15-16.72,15.52-31.49,33.68-31.11,57.9.52,33.49,30.4,57.61,62.64,57.08,30-.51,59.38-16.62,80.81-36.73a136.42,136.42,0,0,0,24.81-31.71c6.54-11.53,12.08-24.52,14.64-37.59,4.21-21.5,4.69-41.87-5.43-62a59.56,59.56,0,0,0-25.52-25.48c-11.34-5.59-24.12-9.06-36.85-7.62-29.08,3.3-57.67,14.69-82.2,30.6a247.48,247.48,0,0,0-35,27.36c-13.17,12.43-26.42,27.12-31.34,44.92-9.19,33.27,11.17,66.54,43.56,76.36A68.38,68.38,0,0,0,417,943c11.68-3.5,20.35-8.85,29.68-16.06,21.37-16.5,39.69-37.34,52.24-61.38a210.13,210.13,0,0,0,16.16-40c3.48-12.41,5.09-25.39,1.48-38-6.93-24.29-28.52-39.1-53.05-40.33-13.21-.66-24.75,5.07-36.33,10.4q-7.77,3.58-15.24,7.77a231.66,231.66,0,0,0-27.83,18.44c-11.63,8.92-23,17.94-33.19,28.45q-5.69,5.85-10.93,12.1c-5.91,7.05-12.2,14.12-16.89,22-8.57,14.43-12.55,33.3-7.51,49.69a62.61,62.61,0,0,0,29.3,36.81c14.26,8.11,31.18,9.87,47,6.22,13.47-3.1,23.95-10.26,34.29-19,21.81-18.45,37.1-45.38,45.78-72.29,4.46-13.83,6.44-28.73,7.07-43.2.68-15.62-7.76-30-19.7-39.26-11.72-9-28.93-14.34-43.59-8.95-24.35,9-45.66,21.3-64.67,39.16-9.12,8.57-16.91,18.64-24.15,28.79A124.81,124.81,0,0,0,313.72,848l-5,11.94a37.91,37.91,0,0,0-.9,19.94c1.41,10.49,5.72,21.33,13.76,28.71,16.42,15.07,40.81,19.36,60.59,7.82,16.38-9.57,31.54-24.54,40-41.66,8.61-17.44,14.72-37.5,12.25-57.17A50,50,0,0,0,409.6,774.4c-16.2-9.48-34.2-8.15-50.47,0a165.74,165.74,0,0,0-49.71,38.47L388,873.46a84.49,84.49,0,0,0,11.15-26.14c2.13-9.18,3.64-19.26,2.53-28.74a49.68,49.68,0,0,0-6.82-25.23,37.82,37.82,0,0,0-12.88-14,37.71,37.71,0,0,0-17-9,50.4,50.4,0,0,0-26.59,0c-15.16,6-30,12.5-43.52,21.65a227.46,227.46,0,0,0-37.34,30.88c-9,9.41-14.65,22.24-14.65,35.36,0,12.26,5.45,26.91,14.65,35.35,9.53,8.75,22,15.25,35.35,14.65l13.3-1.79a49.87,49.87,0,0,0,22.06-12.86c24.59-21,37.11-52.62,39.09-84.24,1-15.5-7.93-30.17-19.7-39.26a37.71,37.71,0,0,0-17-9,50.4,50.4,0,0,0-26.59,0c-25,10.22-48.75,21.8-70.7,37.66l73.45,56.47,36.8-107.2c3.89-11.32,1.41-28.53-5-38.53a51.76,51.76,0,0,0-23.91-20.46c-22.16-9.35-50.44-1.52-62.43,20.46a330.41,330.41,0,0,1-28.37,43.23l7.82-10.12c-34.85,44.87-79,81.15-122.79,116.88C95.4,870.5,91.59,892.35,96,908.2a50.11,50.11,0,0,0,34.92,34.92c24.36,3.45,47.79,10.94,70.41,20.48l-11.95-5c34.46,14.71,67,33.5,99.9,51.39l105.66,57.53c22,12,49.09,7.07,64.51-12.88,6.51-8.43,11.22-19.34,10.73-30.3L468.35,1011A50,50,0,0,0,455.5,989l-13.21-16.08-48.64,83.57a64,64,0,0,0,27,3.91c9.41-.61,19.12-2,27.94-5.53,14.38-5.69,27.63-13.28,41.81-19.29l-11.94,5c11.72-4.77,24-7.84,36.19-11.06A255.72,255.72,0,0,0,560.37,1013c24-11.54,44-30.18,64.86-46.4l-10.11,7.82c12.07-9.33,24.62-18,38.71-24l-11.94,5c17.64-7.3,36.47-11,54.39-17.46,11.85-4.29,24.29-9,34.8-16.21,14.29-9.75,25.52-20.58,34.76-35.33,8.45-13.49,8.53-30.26,2.52-44.5A37.41,37.41,0,0,0,758,825.81,49.87,49.87,0,0,0,736,813c-1-.4-2-.81-3-1.24l12,5a151.8,151.8,0,0,1-32.48-18.92l10.12,7.82a152.36,152.36,0,0,1-24.57-24v70.71a87.8,87.8,0,0,1,15.11-14.92l-10.12,7.82a104,104,0,0,1,22-12.5l-11.94,5a152.13,152.13,0,0,1,36.53-9.5l-13.29,1.79c18.22-2.43,37.31-3.07,55.58-.76l-13.29-1.79A64.55,64.55,0,0,1,794,831.67l-11.94-5c10.36,4.73,19.17,12.13,29.25,17.38a268.71,268.71,0,0,0,37,15.49c18.1,6.2,36.78,10.71,54.47,18.1l-11.95-5a114.22,114.22,0,0,1,24.29,13.72L905,878.46a79.72,79.72,0,0,1,13.26,13.09l-7.82-10.12.84,1.08,56.46-73.45a462.71,462.71,0,0,1-107.42-28.34c-10.83-4.3-29-1.11-38.53,5a51.78,51.78,0,0,0-20.45,23.91c-4.2,9.93-5.94,22-2.52,32.56,3.8,11.76,11.35,24.39,23,29.88,24.11,11.38,49,22.66,76.36,22.12,16.49-.33,30.12-4.28,44.94-10.93,14.46-6.49,24.65-18,33.88-30.44l-93.17-25.24,2.28,38.53c.76,12.7,4.92,26.42,14.65,35.36a51.41,51.41,0,0,0,28.71,13.75c10.66,1.43,22.57.07,31.88-5.93,11.45-7.39,18.29-17.08,23-29.89,7.38-20.19,7.3-41.49-2.55-60.85-10.13-19.92-31.85-33.16-54.19-33.16-16.23,0-31.78,7.32-44.76,16.63-10.43,7.5-20.49,15.39-28.84,25.19l78.53,10.12a145.68,145.68,0,0,0-25.36-32.86A141.6,141.6,0,0,0,887,788.37c-9.9-6.47-24.18-10.84-36-9.94-12.42,1-23,4.19-33,11.88-6.5,5-10.88,8.6-15.16,16.6-7.43,13.88-9.83,30.15-5.69,45.48,6.35,23.47,27.25,41.32,50.88,45.85a50.4,50.4,0,0,0,26.59,0,50,50,0,0,0,34.92-61.5c-3.49-20-14-37.5-26.54-53s-29.64-25.91-48.07-33.22c-23.06-9.13-51.94-7.81-73.32,5.23-22.63,13.81-39.13,39.56-37.5,66.7,1.87,31.17,22.23,55.49,51.71,64.84,23.94,7.59,53.31.58,70.5-17.94,18-19.41,24.51-45.75,18.24-71.39-6.18-25.23-28.09-46.63-53.51-52.08-13.6-2.93-27.76-3.16-41.17,1.07a76,76,0,0,0-19.06,8.74c-10.39,7-15.63,12.72-22.92,22.83-10.77,14.94-12.5,33-19.15,49.61l5-12c-4.8,11.07-11.19,20.94-15.11,32.51-6.32,18.61-3.75,39.32,6,56.2,9.26,16,25,25.71,42,31.49,10.71,3.63,22.44,4.11,33.53,5.57l-13.29-1.79A604.1,604.1,0,0,1,920.22,982l-11.94-5a603.69,603.69,0,0,1,127.42,73.34l11.94,5a37.91,37.91,0,0,0,19.94.89c10.49-1.41,21.34-5.72,28.71-13.75,14.82-16.14,19.8-41.17,7.82-60.59a244.5,244.5,0,0,1-16.6-32.27l5,11.94c-15-35.64-22.81-73.64-32.88-110.84-5-18.49-10.62-36.85-17.93-54.57-4.92-11.91-9.72-24.25-16.29-35.4a108.84,108.84,0,0,0-34-36c-11.4-7.58-25.33-11.46-38.32-15.51l-31.22-9.73-66.26-20.66Q823,668.69,790.41,658.52c-13.75-4.29-28.25-8-42.76-7.63s-28.42,3.78-42,8.32Q669,671.39,632.34,683.64c-23.17,7.7-46.54,15-70.81,18.33l13.29-1.79c-22.39,2.85-44.91,2.24-67.25-.74l13.29,1.78c-45.31-6.32-88.6-21.73-131.41-37.29-11.14-4-28.7-1.3-38.53,5-10.09,6.5-21.28,17.38-23,29.88l-5.05,37.3a37.87,37.87,0,0,0-.9,19.93,37.23,37.23,0,0,0,5.94,18.59c6.07,10.38,18,20.27,29.88,23,12.8,2.92,27.16,2.29,38.53-5,10.09-6.5,21.28-17.38,23-29.88Z" transform="translate(-41.69 -105.84)"/><path class="cls-1" d="M337.67,664.5a1.5,1.5,0,0,0,0-3,1.5,1.5,0,0,0,0,3Z" transform="translate(-41.69 -105.84)"/><path class="cls-1" d="M339.68,662.23a208.84,208.84,0,0,0,9.44,23.53c.77,1.63,3,.41,2.74-1.16l-1.63-8.75c-.35-1.9-3.24-1.09-2.89.8L349,685.4l2.74-1.16a201.07,201.07,0,0,1-9.13-22.8c-.61-1.83-3.51-1.05-2.9.79Z" transform="translate(-41.69 -105.84)"/><path class="cls-1" d="M339,737a51.63,51.63,0,0,0,35.36-14.64c8.67-8.68,15.2-22.9,14.64-35.36-.58-12.93-4.83-26.34-14.64-35.36S352.55,637,339,637a51.63,51.63,0,0,0-35.36,14.64C295,660.32,288.44,674.54,289,687c.58,12.93,4.83,26.34,14.64,35.36S325.45,737,339,737Z" transform="translate(-41.69 -105.84)"/><path class="cls-1" d="M301.27,966.88c8.79,3.19,17.63,6.27,26.27,9.84l-11.94-5a105.61,105.61,0,0,1,23.12,12.89l-10.12-7.82c.87.68,1.73,1.38,2.56,2.1,10.36,8.72,21.39,14.65,35.36,14.65,12.26,0,26.91-5.45,35.36-14.65,8.74-9.52,15.24-22,14.64-35.35-.56-12.59-4.61-26.92-14.64-35.36-10.75-9-21.46-16.6-34.27-22.16-13.1-5.68-26.35-10.66-39.76-15.53-11.62-4.22-28.19-1-38.53,5s-20.26,18-23,29.88c-2.92,12.8-2.29,27.17,5,38.53s17.07,18.32,29.88,23Z" transform="translate(-41.69 -105.84)"/></g><g id="Layer_12" data-name="Layer 12" class="cls-2"><polygon class="cls-3" points="368.54 962.87 508.35 607.13 726.1 534.19 697.61 833.02 368.54 962.87"/><polygon points="274.31 698.16 245.31 668.82 245.31 629.16 303.31 629.16 274.31 564.16 310.31 530.16 368.54 556.05 368.54 696.9 274.31 703.16 274.31 698.16"/></g><g id="Layer_10" data-name="Layer 10"><path class="cls-4" d="M79.26,922.08q100.31-107,204.45-210.31,29.42-29.16,59.12-58c7-6.85,7.39-19.74,0-26.52-7.58-7-19-7.31-26.52,0Q211.12,729.44,109.7,835.42q-28.64,29.93-57,60.14c-6.71,7.16-7.63,19.52,0,26.52,7.29,6.69,19.35,7.64,26.52,0Z" transform="translate(-41.69 -105.84)"/><path class="cls-4" d="M53.75,941.76l144.68,68c46.95,22,94.66,43,140.79,66.69,25.47,13.09,48.53,31,75.58,40.83,12.31,4.47,27.92-5,30.75-17.46,3.21-14.09-4.28-26-17.46-30.75-1.61-.59-6.72-1.4-.54,0a18.74,18.74,0,0,1-3.18-1.45c-2.63-1.25-5.22-2.59-7.78-4-5.13-2.82-10.11-5.91-15.07-9-10.21-6.38-20.51-12.55-31.16-18.19-22.53-11.94-45.85-22.4-68.92-33.24l-142-66.7L79,898.59c-6.21-2.92-12.43-4.4-19.26-2.52-5.8,1.6-12.09,6.08-14.95,11.49-5.85,11.09-3.66,28.27,9,34.2Z" transform="translate(-41.69 -105.84)"/><path class="cls-4" d="M453.09,1105.75a1175,1175,0,0,1,109-63q27.86-14.18,56.45-26.84,7.05-3.12,14.13-6.15c.8-.34,4.45-1.91,1.18-.51s.38-.16,1.19-.49c2.79-1.17,5.58-2.32,8.37-3.47q14.68-6,29.51-11.61,33.06-12.48,66.83-22.95c12.47-3.88,21.71-17.62,17.46-30.76-4.06-12.54-17.38-21.61-30.75-17.46a1204.12,1204.12,0,0,0-236.68,102.38q-31.53,17.89-61.89,37.73c-10.94,7.13-16.53,22.47-9,34.2,7.05,10.93,22.49,16.61,34.21,9Z" transform="translate(-41.69 -105.84)"/><path class="cls-4" d="M744.83,973q74.82,22.41,148.49,48.41c48.65,17.19,96.43,36.54,144.8,54.46,26.58,9.85,53.54,18.73,81.23,24.86,12.74,2.81,27.65-3.84,30.76-17.47,2.88-12.65-3.81-27.73-17.46-30.75-49.73-11-96.75-30.88-144.13-49.1q-72.88-28-147.1-52.46-41.46-13.65-83.3-26.16c-12.52-3.75-27.8,4.5-30.75,17.46-3.07,13.46,4,26.73,17.46,30.75Z" transform="translate(-41.69 -105.84)"/><path class="cls-4" d="M990.16,747q42.76,125.79,90.23,249.91,13.5,35.26,27.36,70.37c3.59,9.1,12.71,16.45,23.07,13.1,8.81-2.85,17-13.3,13.09-23.06Q1095.13,933.71,1051,808.35q-12.52-35.61-24.67-71.35c-3.15-9.27-13-16.34-23.07-13.1-9.2,3-16.47,13.13-13.09,23.07Z" transform="translate(-41.69 -105.84)"/><path class="cls-4" d="M331.38,647.07q104.1,39.75,211.31,70.53c16.27,4.67,23.21-20.65,7-25.31q-107.11-30.75-211.31-70.53c-6.62-2.53-14.39,2.8-16.14,9.16-2,7.4,2.52,13.61,9.16,16.15Z" transform="translate(-41.69 -105.84)"/><path class="cls-4" d="M565.21,718.69q97.5-40,198.58-70.22c16.15-4.84,9.27-30.18-7-25.32q-100.93,30.23-198.57,70.22c-6.56,2.69-11.21,8.73-9.17,16.15,1.7,6.2,9.55,11.87,16.14,9.17Z" transform="translate(-41.69 -105.84)"/><path class="cls-4" d="M764.07,653.52a1308.3,1308.3,0,0,1,219.43,84c6.36,3.12,14.2,1.72,18-4.71,3.38-5.78,1.68-14.82-4.71-18a1345.61,1345.61,0,0,0-225.7-86.69c-16.28-4.62-23.23,20.7-7,25.31Z" transform="translate(-41.69 -105.84)"/><path class="cls-4" d="M1001.8,748.45c16.89,0,16.91-26.25,0-26.25s-16.92,26.25,0,26.25Z" transform="translate(-41.69 -105.84)"/><path class="cls-4" d="M1006,744.21c16.89,0,16.92-26.25,0-26.25s-16.92,26.25,0,26.25Z" transform="translate(-41.69 -105.84)"/><path class="cls-4" d="M1003.21,742.8c16.89,0,16.91-26.25,0-26.25s-16.92,26.25,0,26.25Z" transform="translate(-41.69 -105.84)"/><path class="cls-4" d="M555.94,723.05c16.89,0,16.92-26.25,0-26.25s-16.92,26.25,0,26.25Z" transform="translate(-41.69 -105.84)"/></g><g id="Layer_2" data-name="Layer 2"><g id="Layer_3" data-name="Layer 3"><rect class="cls-5" x="356.45" y="88.16" width="450.61" height="566.66"/><rect class="cls-6" x="274.36" y="654.82" width="606.98" height="43.42"/></g><g id="Layer_4" data-name="Layer 4"><rect class="cls-7" x="383.83" y="136.01" width="79.77" height="132.92"/><rect class="cls-7" x="489.47" y="136.01" width="79.77" height="132.92"/><rect class="cls-7" x="596.2" y="136.01" width="79.77" height="132.92"/><rect class="cls-7" x="700.76" y="136.01" width="79.77" height="132.92"/><rect class="cls-7" x="383.66" y="308.8" width="79.77" height="132.92"/><rect class="cls-7" x="489.31" y="308.8" width="79.77" height="132.92"/><rect class="cls-7" x="596.03" y="308.8" width="79.77" height="132.92"/><rect class="cls-7" x="700.6" y="308.8" width="79.77" height="132.92"/><rect class="cls-7" x="382.32" y="481.59" width="79.77" height="132.92"/><rect class="cls-7" x="700.75" y="481.59" width="79.77" height="132.92"/><rect class="cls-6" x="488.85" y="485.58" width="187.57" height="36.33"/><rect class="cls-7" x="523.36" y="521.91" width="118.74" height="132.92"/></g><g id="Layer_13" data-name="Layer 13"><g id="Layer_14" data-name="Layer 14"><polygon class="cls-8" points="489.47 234.5 545.07 136.01 568.81 135.66 568.81 180.76 520.03 268.93 489.81 268.66 489.47 234.5"/><polygon class="cls-8" points="384.47 234.5 440.07 136.01 463.81 135.66 463.81 180.76 415.03 268.93 384.81 268.66 384.47 234.5"/><polygon class="cls-8" points="595.47 234.5 651.07 136.01 674.81 135.66 674.81 180.76 626.03 268.93 595.81 268.66 595.47 234.5"/><polygon class="cls-8" points="700.47 234.5 756.07 136.01 779.81 135.66 779.81 180.76 731.03 268.93 700.81 268.66 700.47 234.5"/></g><g id="Layer_15" data-name="Layer 15"><polygon class="cls-8" points="384.47 407.5 440.07 309.01 463.81 308.66 463.81 353.76 415.03 441.93 384.81 441.66 384.47 407.5"/><polygon class="cls-8" points="489.47 407.5 545.07 309.01 568.81 308.66 568.81 353.76 520.03 441.93 489.81 441.66 489.47 407.5"/><polygon class="cls-8" points="595.47 407.5 651.07 309.01 674.81 308.66 674.81 353.76 626.03 441.93 595.81 441.66 595.47 407.5"/><polygon class="cls-8" points="700.47 407.5 756.07 309.01 779.81 308.66 779.81 353.76 731.03 441.93 700.81 441.66 700.47 407.5"/></g><g id="Layer_16" data-name="Layer 16"><polygon class="cls-8" points="382.47 580.5 438.07 482.01 461.81 481.66 461.81 526.76 413.03 614.93 382.81 614.66 382.47 580.5"/><polygon class="cls-8" points="700.47 580.5 756.07 482.01 779.81 481.66 779.81 526.76 731.03 614.93 700.81 614.66 700.47 580.5"/><polygon class="cls-8" points="618.07 522.01 545.07 654.93 595.81 654.66 641.81 564.66 642.1 521.91 618.07 522.01"/><polygon class="cls-2" points="488.81 485.66 470.81 515.66 470.81 547.66 651.81 547.66 651.81 521.91 488.81 521.66 488.81 485.66"/></g></g></g><g id="Layer_6" data-name="Layer 6"><rect class="cls-9" x="266.39" width="180.77" height="180.77"/><rect class="cls-4" x="298.05" y="91.92" width="25" height="73.95"/><polygon class="cls-4" points="303.18 166.39 333.99 166.39 398.04 55.46 367.22 55.46 303.18 166.39"/><polygon class="cls-4" points="400.32 50.33 369.51 50.33 374.85 41.08 405.66 41.08 400.32 50.33"/><polygon class="cls-4" points="409.56 35.95 378.75 35.95 384.09 26.7 414.9 26.7 409.56 35.95"/><polygon class="cls-4" points="417.78 21.57 386.97 21.57 392.31 12.32 423.12 12.32 417.78 21.57"/></g></svg>